<?xml version="1.0" encoding="utf-8"?>
<svg version="1.1" xmlns:xlink="http://www.w3.org/1999/xlink" width="30px" height="30px" xmlns="http://www.w3.org/2000/svg">
  <defs>
    <filter x="861px" y="648px" width="30px" height="30px" filterUnits="userSpaceOnUse" id="filter19">
      <feOffset dx="1" dy="1" in="SourceAlpha" result="shadowOffsetInner" />
      <feGaussianBlur stdDeviation="2.5" in="shadowOffsetInner" result="shadowGaussian" />
      <feComposite in2="shadowGaussian" operator="atop" in="SourceAlpha" result="shadowComposite" />
      <feColorMatrix type="matrix" values="0 0 0 0 0  0 0 0 0 0  0 0 0 0 0  0 0 0 0.698039215686274 0  " in="shadowComposite" />
    </filter>
    <g id="widget20">
      <path d="M 875 652  C 880.6 652  885 656.4  885 662  C 885 667.6  880.6 672  875 672  C 869.4 672  865 667.6  865 662  C 865 656.4  869.4 652  875 652  Z " fill-rule="nonzero" fill="#ffffff" stroke="none" />
      <path d="M 875 652.5  C 880.32 652.5  884.5 656.68  884.5 662  C 884.5 667.32  880.32 671.5  875 671.5  C 869.68 671.5  865.5 667.32  865.5 662  C 865.5 656.68  869.68 652.5  875 652.5  Z " stroke-width="1" stroke="#ffffff" fill="none" />
    </g>
  </defs>
  <g transform="matrix(1 0 0 1 -861 -648 )">
    <use xlink:href="#widget20" filter="url(#filter19)" />
    <use xlink:href="#widget20" />
  </g>
</svg>